<svg xmlns="http://www.w3.org/2000/svg" viewBox="0 0 1200 680" width="1200" height="680">
  <style>
    text { font-family: 'Helvetica Neue', Helvetica, Arial, 'PingFang SC', 'Microsoft YaHei', sans-serif; }
  </style>
  <defs>
    <marker id="arr-b" markerWidth="8" markerHeight="6" refX="7" refY="3" orient="auto">
      <polygon points="0 0, 8 3, 0 6" fill="#2563eb"/>
    </marker>
    <filter id="sh" x="-2%" y="-2%" width="104%" height="108%">
      <feDropShadow dx="0" dy="1" stdDeviation="2" flood-opacity="0.08"/>
    </filter>
  </defs>
  <rect width="1200" height="680" fill="#ffffff"/>
  <text x="600" y="36" fill="#111827" font-size="20" font-weight="600" text-anchor="middle">vibe-viewer Q2 2026 &#x8DEF;&#x7EBF;&#x56FE;</text>
  <text x="600" y="56" fill="#6b7280" font-size="12" text-anchor="middle">6 Epics &#xB7; 5 Milestones &#xB7; 6 Weeks</text>
  <rect x="100" y="80" width="1000" height="4" rx="2" fill="#e5e7eb"/>
  <line x1="100" y1="76" x2="100" y2="88" stroke="#9ca3af" stroke-width="1"/>
  <text x="100" y="98" fill="#9ca3af" font-size="10" text-anchor="middle">W1 (4/7)</text>
  <line x1="300" y1="76" x2="300" y2="88" stroke="#9ca3af" stroke-width="1"/>
  <text x="300" y="98" fill="#9ca3af" font-size="10" text-anchor="middle">W2 (4/14)</text>
  <line x1="500" y1="76" x2="500" y2="88" stroke="#9ca3af" stroke-width="1"/>
  <text x="500" y="98" fill="#9ca3af" font-size="10" text-anchor="middle">W3 (4/21)</text>
  <line x1="700" y1="76" x2="700" y2="88" stroke="#9ca3af" stroke-width="1"/>
  <text x="700" y="98" fill="#9ca3af" font-size="10" text-anchor="middle">W4 (4/28)</text>
  <line x1="900" y1="76" x2="900" y2="88" stroke="#9ca3af" stroke-width="1"/>
  <text x="900" y="98" fill="#9ca3af" font-size="10" text-anchor="middle">W5 (5/5)</text>
  <line x1="1100" y1="76" x2="1100" y2="88" stroke="#9ca3af" stroke-width="1"/>
  <text x="1100" y="98" fill="#9ca3af" font-size="10" text-anchor="middle">W6 (5/12)</text>
  <polygon points="100,72 110,82 100,92 90,82" fill="#3b82f6"/>
  <text x="100" y="110" fill="#3b82f6" font-size="10" font-weight="600" text-anchor="middle">M1: 核心</text>
  <text x="100" y="124" fill="#3b82f6" font-size="10" font-weight="600" text-anchor="middle">&#x8BFB;&#x53D6;+&#x6E32;&#x67D3;</text>
  <polygon points="300,72 310,82 300,92 290,82" fill="#8b5cf6"/>
  <text x="300" y="110" fill="#8b5cf6" font-size="10" font-weight="600" text-anchor="middle">M2: &#x89C2;&#x770B;</text>
  <text x="300" y="124" fill="#8b5cf6" font-size="10" font-weight="600" text-anchor="middle">&#x4F53;&#x9A8C;</text>
  <polygon points="500,72 510,82 500,92 490,82" fill="#ef4444"/>
  <text x="500" y="110" fill="#ef4444" font-size="10" font-weight="600" text-anchor="middle">M3: &#x5B89;&#x5168;</text>
  <text x="500" y="124" fill="#ef4444" font-size="10" font-weight="600" text-anchor="middle">&#x4E0E;&#x7A33;&#x5B9A;</text>
  <polygon points="700,72 710,82 700,92 690,82" fill="#f59e0b"/>
  <text x="700" y="110" fill="#f59e0b" font-size="10" font-weight="600" text-anchor="middle">M4: &#x9AD8;&#x7EA7;</text>
  <text x="700" y="124" fill="#f59e0b" font-size="10" font-weight="600" text-anchor="middle">&#x529F;&#x80FD;</text>
  <polygon points="900,72 910,82 900,92 890,82" fill="#16a34a"/>
  <text x="900" y="110" fill="#16a34a" font-size="10" font-weight="600" text-anchor="middle">M5: &#x5F00;&#x6E90;</text>
  <text x="900" y="124" fill="#16a34a" font-size="10" font-weight="600" text-anchor="middle">&#x53D1;&#x5E03;</text>
  <rect x="100" y="152" width="200" height="68" rx="8" fill="#eff6ff" stroke="#3b82f6" stroke-width="1.5" stroke-opacity="0.3" filter="url(#sh)"/>
  <text x="112" y="172" fill="#3b82f6" font-size="12" font-weight="600">E1: &#x6838;&#x5FC3;&#x8BFB;&#x53D6;&#x7BA1;&#x7EBF;</text>
  <text x="112" y="190" fill="#4b5563" font-size="11">&#x626B;&#x63CF;&#x76EE;&#x5F55;&#x6811; &#xB7; &#x8BFB;&#x53D6;&#x6587;&#x4EF6; &#xB7; API &#x63A5;&#x53E3;</text>
  <rect x="112" y="200" width="176" height="6" rx="3" fill="#e5e7eb"/>
  <rect x="112" y="200" width="96" height="6" rx="3" fill="#3b82f6" fill-opacity="0.6"/>
  <text x="288" y="172" fill="#9ca3af" font-size="10" text-anchor="end">W1-W2</text>
  <rect x="100" y="228" width="400" height="68" rx="8" fill="#faf5ff" stroke="#8b5cf6" stroke-width="1.5" stroke-opacity="0.3" filter="url(#sh)"/>
  <text x="112" y="248" fill="#8b5cf6" font-size="12" font-weight="600">E2: Markdown &#x6E32;&#x67D3;&#x5F15;&#x64CE;</text>
  <text x="112" y="266" fill="#4b5563" font-size="11">Mermaid 11.x &#xB7; Shiki &#xB7; KaTeX &#xB7; DOMPurify</text>
  <rect x="112" y="276" width="376" height="6" rx="3" fill="#e5e7eb"/>
  <rect x="112" y="276" width="206" height="6" rx="3" fill="#8b5cf6" fill-opacity="0.6"/>
  <text x="488" y="248" fill="#9ca3af" font-size="10" text-anchor="end">W1-W3</text>
  <rect x="300" y="304" width="400" height="68" rx="8" fill="#fef2f2" stroke="#ef4444" stroke-width="1.5" stroke-opacity="0.3" filter="url(#sh)"/>
  <text x="312" y="324" fill="#ef4444" font-size="12" font-weight="600">E3: &#x89C2;&#x770B;&#x4F53;&#x9A8C; &#x4E3B;&#x9898;</text>
  <text x="312" y="342" fill="#4b5563" font-size="11">8 &#x4E3B;&#x9898; &#xB7; &#x5168;&#x5C4F;&#x67E5;&#x770B;&#x5668; &#xB7; &#x4FA7;&#x8FB9;&#x680F;&#x6298;&#x53E0; &#xB7; &#x54CD;&#x5E94;&#x5F0F;</text>
  <rect x="312" y="352" width="376" height="6" rx="3" fill="#e5e7eb"/>
  <rect x="312" y="352" width="206" height="6" rx="3" fill="#ef4444" fill-opacity="0.6"/>
  <text x="688" y="324" fill="#9ca3af" font-size="10" text-anchor="end">W2-W4</text>
  <rect x="500" y="380" width="200" height="68" rx="8" fill="#fff7ed" stroke="#f59e0b" stroke-width="1.5" stroke-opacity="0.3" filter="url(#sh)"/>
  <text x="512" y="400" fill="#f59e0b" font-size="12" font-weight="600">E4: &#x7A33;&#x5B9A;&#x6027;&#x4E0E;&#x5B89;&#x5168;</text>
  <text x="512" y="418" fill="#4b5563" font-size="11">&#x5927;&#x76EE;&#x5F55;&#x6027;&#x80FD; &#xB7; /raw &#x5B89;&#x5168;&#x52A0;&#x56FA; &#xB7; &#x9519;&#x8BEF;&#x8FB9;&#x754C;</text>
  <rect x="512" y="428" width="176" height="6" rx="3" fill="#e5e7eb"/>
  <rect x="512" y="428" width="96" height="6" rx="3" fill="#f59e0b" fill-opacity="0.6"/>
  <text x="688" y="400" fill="#9ca3af" font-size="10" text-anchor="end">W3-W4</text>
  <rect x="700" y="456" width="200" height="68" rx="8" fill="#f0fdf4" stroke="#10b981" stroke-width="1.5" stroke-opacity="0.3" filter="url(#sh)"/>
  <text x="712" y="476" fill="#10b981" font-size="12" font-weight="600">E5: &#x9AD8;&#x7EA7;&#x529F;&#x80FD;</text>
  <text x="712" y="494" fill="#4b5563" font-size="11">&#x5168;&#x6587;&#x641C;&#x7D22; &#xB7; &#x4E66;&#x7B7E;&#x6536;&#x85CF; &#xB7; &#x6253;&#x5370;&#x6837;&#x5F0F;</text>
  <rect x="712" y="504" width="176" height="6" rx="3" fill="#e5e7eb"/>
  <rect x="712" y="504" width="96" height="6" rx="3" fill="#10b981" fill-opacity="0.6"/>
  <text x="888" y="476" fill="#9ca3af" font-size="10" text-anchor="end">W4-W5</text>
  <rect x="700" y="532" width="200" height="68" rx="8" fill="#eef2ff" stroke="#6366f1" stroke-width="1.5" stroke-opacity="0.3" filter="url(#sh)"/>
  <text x="712" y="552" fill="#6366f1" font-size="12" font-weight="600">E6: &#x5F00;&#x6E90;&#x53D1;&#x5E03;</text>
  <text x="712" y="570" fill="#4b5563" font-size="11">README+&#x6587;&#x6863; &#xB7; CI/CD &#xB7; npm &#x53D1;&#x5E03;</text>
  <rect x="712" y="580" width="176" height="6" rx="3" fill="#e5e7eb"/>
  <rect x="712" y="580" width="96" height="6" rx="3" fill="#6366f1" fill-opacity="0.6"/>
  <text x="888" y="552" fill="#9ca3af" font-size="10" text-anchor="end">W4-W5</text>
  <rect x="40" y="618" width="1120" height="60" rx="8" fill="#fef2f2" stroke="#fecaca" stroke-width="1"/>
  <text x="56" y="636" fill="#dc2626" font-size="12" font-weight="600">&#x26A0; &#x5173;&#x952E;&#x98CE;&#x9669;</text>
  <text x="56" y="654" fill="#991b1b" font-size="11">&#x2022; Mermaid 11.x &#x5927;&#x56FE;&#x6027;&#x80FD; &#x2014; &#x964D;&#x7EA7;&#x65B9;&#x6848;&#xFF1A;&#x7981;&#x7528;&#x52A8;&#x753B; + &#x5206;&#x6279;&#x6E32;&#x67D3;</text>
  <text x="56" y="670" fill="#991b1b" font-size="11">&#x2022; EMFILE &#x9650;&#x5236; &#x2014; &#x5DF2;&#x6709;&#x964D;&#x7EA7;&#x65B9;&#x6848;&#xFF1A;&#x8D85;&#x8FC7;&#x9650;&#x5236;&#x65F6;&#x4EC5;&#x76D1;&#x542C;&#x5DF2;&#x6253;&#x5F00;&#x6587;&#x4EF6;</text>
  <text x="56" y="686" fill="#991b1b" font-size="11" visibility="hidden">&#x2022; W5-W6 Buffer</text>
</svg>